PathFileType	4	(X/Y/Z)	C:/Users/beibeiliu/ov580/test_trc/User3\sequence.10_training_dense_left.trc
DataRate	CameraRate	NumFrames	NumMarkers	Units	OrigDataRate	OrigDataStartFrame	OrigNumFrames
120	120	11	19	mm	120	26	155
Frame#	Time	ThumbCMC			ThumbMCP			ThumbIP			ThumbTip			IndexMCP			IndexPIP			IndexTip			MiddleMCP			MiddlePIP			MiddleTip			RingMCP			RingPIP			RingTip			PinkyMCP			PinkyPIP			PinkyTip			BackHand1			BackHand2			BackHand3	
		X0	Y0	Z0	X1	Y1	Z1	X2	Y2	Z2	X3	Y3	Z3	X4	Y4	Z4	X5	Y5	Z5	X6	Y6	Z6	X7	Y7	Z7	X8	Y8	Z8	X9	Y9	Z9	X10	Y10	Z10	X11	Y11	Z11	X12	Y12	Z12	X13	Y13	Z13	X14	Y14	Z14	X15	Y15	Z15	X16	Y16	Z16	X17	Y17	Z17	X18	Y18	Z18	
25	0.208333	-122.667	24.2617	3.61314	-84.6911	21.012	-2.25494	-61.1051	-2.83944	-9.08546	-59.5295	-30.4831	-6.63053	-91.7815	-17.0159	-60.2741	-69.6563	-25.3616	-72.7611	-49.5987	-35.3453	-82.6958	-82.1712	-34.078	-35.9211	-65.5285	-26.6051	-7.61772	-99.9403	-10.7725	6.06892	-91.7437	-47.0623	-17.5466	-83.2404	-34.4076	11.5284	-111.559	-15.3633	17.1019	-100.644	-52.889	-6.837	-94.7344	-38.3727	16.1678	-119.106	-21.7612	19.3527	-150.846	-31.3462	-20.4966	-168.195	-16.816	-3.59668	-148.592	4.82251	-18.8966	
26	0.216667	-141.877	36.7452	-3.78173	-107.377	47.6412	-8.34505	-79.467	34.6726	-10.4393	-68.4312	12.6474	-3.94877	-95.518	11.4727	-58.5736	-71.1184	7.20587	-68.6621	-48.8915	8.28001	-77.1236	-77.0708	-3.64764	-31.9	-67.7269	14.7657	-8.37998	-104.407	15.6384	5.22208	-80.2721	-11.9259	-16.8992	-79.4255	4.22112	10.7725	-113.504	8.88818	14.1222	-86.1147	-28.0234	-2.38869	-88.7802	-5.66023	15.9326	-117.164	-3.31863	20.8133	-135.027	-31.4174	-20.3065	-164.537	-28.9591	0.491855	-154.047	2.99587	-22.2268	
27	0.225	-164.299	30.9659	-9.55965	-143.62	61.0731	-17.4015	-108.07	63.7518	-22.8797	-85.4888	50.3299	-14.5462	-110.876	25.1321	-63.1138	-89.3979	38.9321	-79.4806	-67.9182	44.6938	-86.1789	-90.5695	29.1002	-41.2419	-86.306	45.6099	-14.3307	-124.153	29.3827	-3.979	-86.1399	14.0404	-22.495	-92.6072	32.4004	3.98524	-120.828	21.504	9.98061	-83.0374	1.34271	-7.70623	-91.7212	20.7399	8.3634	-120.153	8.94793	13.5216	-131.466	-21.3193	-22.393	-153.391	-31.8944	0.60356	-157.474	-3.52301	-26.6417	
28	0.233333	-180.566	22.0712	-18.6945	-170.202	49.6474	-28.7891	-142.117	65.0058	-37.7234	-117.279	62.7546	-32.7347	-130.239	25.0075	-77.7895	-116.2	38.8834	-93.0947	-97.0875	55.2437	-109.471	-113.154	33.527	-57.2226	-111.909	58.9324	-33.21	-132.217	34.9276	-15.0016	-101.09	29.8478	-37.6942	-109.698	47.7898	-14.1634	-131.882	28.0213	-3.74445	-94.1596	18.119	-24.8446	-104.199	35.2977	-3.66768	-124.866	14.2214	4.17034	-126.253	-22.3451	-28.6117	-148.548	-34.4326	-1.22477	-163.899	-14.7229	-28.5732	
29	0.241667	-186.592	5.84961	-16.9328	-180.182	30.3486	-40.2765	-162.493	50.2214	-58.8161	-132.353	51.6766	-58.1318	-147.156	-2.75	-84.8245	-139.678	8.72684	-109.994	-129.076	23.9419	-132.302	-122.794	15.0924	-73.4378	-124.466	44.25	-58.0493	-143.917	22.1104	-29.1605	-113.144	15.4646	-56.1557	-117.836	38.0364	-37.2009	-134.149	18.8564	-16.4331	-103.788	9.3754	-42.0937	-111.822	31.396	-25.3822	-128.12	10.3863	-10.6416	-134.738	-32.6153	-27.872	-144.349	-38.2699	0.0953127	-168.335	-29.0912	-25.1139	
30	0.25	-185.199	-7.5591	-18.9027	-187.189	11.2443	-49.4707	-170.116	19.7178	-69.8107	-142.269	18.4627	-78.0106	-168.138	-39.6581	-87.5703	-160.333	-39.2889	-110.006	-150.879	-31.1637	-139.901	-138.216	-20.9548	-81.2457	-133.493	13.1365	-78.9976	-145.294	6.80218	-43.6275	-123.279	-13.8872	-70.8051	-122.293	13.4183	-55.981	-141.783	2.8789	-32.0337	-110.474	-14.5315	-56.1152	-114.216	9.3576	-46.4596	-131.132	-3.83471	-19.523	-136.406	-52.6205	-25.7793	-143.644	-47.239	7.33527	-171.645	-43.871	-17.0717	
31	0.258333	-190.011	-11.301	-14.1816	-192.369	0.368769	-49.873	-179.7	-2.09651	-74.597	-156.221	-8.50298	-91.6275	-187.484	-64.6768	-73.5028	-190.395	-71.0311	-98.3207	-185.871	-72.8865	-127.356	-158.678	-47.5638	-82.9799	-149.415	-17.3187	-86.9634	-156.28	-9.92885	-48.472	-137.919	-44.7737	-69.2374	-133.129	-16.3837	-70.1479	-145.874	-13.5771	-37.6832	-122.489	-45.5106	-57.3564	-121.541	-15.6858	-55.486	-132.96	-16.2819	-29.506	-151.992	-66.1232	-16.6066	-152.79	-51.3932	13.9591	-185.355	-47.2318	-8.82199	
32	0.266667	-191.707	-8.20441	-12.3791	-193.655	-2.0225	-45.9047	-186.494	-8.84015	-76.1343	-167.993	-26.135	-88.3114	-213.427	-62.8528	-56.6307	-219.265	-77.8682	-82.7223	-219.826	-86.8275	-108.892	-180.432	-62.3956	-71.3748	-163.971	-37.8222	-87.5651	-162.437	-20.9227	-51.0131	-161.892	-61.5333	-64.7667	-145.115	-36.9234	-70.5807	-150.809	-25.2889	-38.9823	-141.433	-64.8838	-54.9016	-137.397	-37.5214	-58.3265	-143.656	-30.9813	-28.0697	-170.402	-72.1638	-8.39231	-163.678	-53.1766	19.9511	-190.758	-44.9812	1.4216	
33	0.275	-189.709	4.68895	-7.96571	-191.195	7.03972	-44.4491	-188.792	-6.57591	-75.4272	-177.841	-25.1114	-85.0073	-229.487	-47.4792	-47.9426	-243.915	-58.5093	-69.9475	-252.873	-66.4869	-94.8414	-202.747	-53.33	-66.931	-180.518	-38.2873	-83.236	-167.408	-21.2973	-51.1245	-182.267	-58.5305	-60.7166	-160.245	-41.6405	-66.312	-159.378	-28.5658	-33.6665	-163.932	-67.9859	-54.0052	-151.631	-44.7778	-54.3286	-148.228	-35.6186	-25.9487	-192.169	-62.7515	-2.19042	-177.318	-51.5586	22.1943	-201.927	-33.3008	7.96337	
34	0.283333	-181.062	13.0774	-4.32774	-181.683	19.9242	-40.9581	-185.092	7.18225	-68.6638	-183.823	-17.5838	-81.1808	-239.294	-16.8914	-41.8971	-258.666	-24.0647	-66.3874	-269.893	-28.4177	-83.2612	-217.669	-33.8269	-63.5686	-189.646	-26.3142	-79.0022	-172.729	-15.7723	-44.1977	-198.374	-48.3056	-56.3155	-171.071	-32.1175	-63.4078	-166.026	-23.9129	-30.1639	-185.875	-62.0491	-46.873	-163.586	-41.7576	-52.3214	-160.706	-32.5162	-23.8044	-205.896	-47.6689	1.48494	-183.923	-42.5515	27.7558	-204.214	-17.777	11.8881	
35	0.291667	-169.865	21.2906	-1.83833	-174.396	26.8308	-39.3355	-180.451	17.9307	-65.1757	-185.981	-5.05811	-78.8809	-239.434	14.669	-39.3679	-258.312	19.324	-62.9932	-270.337	17.6383	-79.6779	-223.284	-13.0907	-61.7652	-195.157	-8.3128	-77.3892	-174.086	-5.54927	-44.4309	-208.844	-30.0233	-55.758	-177.516	-23.5311	-61.5966	-170.597	-16.8654	-31.5542	-200.328	-44.8574	-52.2638	-173.792	-33.698	-51.5001	-168.194	-31.1027	-24.1507	-217.262	-32.1121	1.31352	-194.621	-34.6571	27.2099	-200.997	-1.731	14.0651	
